# xmcd
#
# Track frame offsets: 
#        150
#        15513
#        33551
#        58216
#        78870
#        97802
#        118784
#        138494
#        156275
#        174185
#        193128
#        210843
#        228533
#
# Disc length: 3300 seconds
#
# Revision: 0
# Processed by: cddbd v1.5.1PL2 Copyright (c) Steve Scherf et al.
# Submitted via: ExactAudioCopy v0.95a5
#
DISCID=a30ce20d
DTITLE=田震 - 干杯，田震 1995－2001（CD2 of 2）
DYEAR=1900
DGENRE=
TTITLE0=干杯朋友
TTITLE1=顺其自然（慢版）
TTITLE2=天边的虹
TTITLE3=你的目光温暖了我
TTITLE4=最后的夜
TTITLE5=为你而歌
TTITLE6=梨花非梦
TTITLE7=心在一起
TTITLE8=乐园
TTITLE9=顺其自然（节奏版）
TTITLE10=千秋家国梦（Bonus 电视连续剧《千秋家国梦》主题曲）
TTITLE11=千秋思念（Bonus 电视连续剧《千秋家国梦》插曲）
TTITLE12=雨中的鸟依然在飞（Bonus）
EXTD=
EXTT0=
EXTT1=
EXTT2=
EXTT3=
EXTT4=
EXTT5=
EXTT6=
EXTT7=
EXTT8=
EXTT9=
EXTT10=
EXTT11=
EXTT12=
PLAYORDER=
